<svg xmlns="http://www.w3.org/2000/svg" viewBox="0 0 40 40"><defs><style>.cls-1{fill:#fff;}</style></defs><path class="cls-1" d="M20.25,2.35h0A12.47,12.47,0,0,0,9.67,21.42L19.8,37.65l10.6-17A12,12,0,0,0,20.25,2.35Zm8,16.92L19.8,32.74,11.88,20A9.86,9.86,0,0,1,20.25,5a9.37,9.37,0,0,1,8,14.32Z"/><rect class="cls-1" x="14.19" y="10.1" width="3.25" height="9.38"/><path class="cls-1" d="M22.52,10.1H18.83v9.38h3.25v-2h.44a5.2,5.2,0,0,0,3.23-.81,3.53,3.53,0,0,0,1-2.92,3.45,3.45,0,0,0-1-2.89A5.37,5.37,0,0,0,22.52,10.1Zm.72,4.56a1.17,1.17,0,0,1-.86.27h-.3V12.66h.3a1.28,1.28,0,0,1,.87.22,1.19,1.19,0,0,1,.25.87A1.3,1.3,0,0,1,23.24,14.66Z"/></svg>