<svg xmlns="http://www.w3.org/2000/svg" viewBox="0 0 40 40"><defs><style>.cls-1{fill:#fff;}</style></defs><rect class="cls-1" x="12.01" y="12.58" width="16.09" height="2.05"/><rect class="cls-1" x="12.01" y="17.18" width="11.59" height="2.05"/><path class="cls-1" d="M37.55,27.46l-2.69-4.68h0V7.53H5.64V22.78h0l-3,4.45a3.34,3.34,0,0,0,2.77,5.24H34.64a3.35,3.35,0,0,0,2.91-5ZM7.64,9.53H32.86V22.78H7.64ZM35.81,29.8a1.32,1.32,0,0,1-1.17.67H5.36a1.35,1.35,0,0,1-1.12-2.11l2.45-3.58h27l2.11,3.67A1.33,1.33,0,0,1,35.81,29.8Z"/></svg>