<svg xmlns="http://www.w3.org/2000/svg" viewBox="0 0 124.68 34.13"><defs><style>.cls-1{fill:#63f0b7;}.cls-2,.cls-5{fill:#fff;}.cls-2{stroke:#fff;stroke-width:1.5px;}.cls-3{fill:none;}.cls-4{fill:#32e89f;}</style></defs><path class="cls-1" d="M6.66,4.68a2,2,0,1,0,2,2A2,2,0,0,0,6.66,4.68Zm0,3.07a1.1,1.1,0,0,1,0-2.2,1.1,1.1,0,0,1,0,2.2Z"/><circle class="cls-1" cx="28.88" cy="5.81" r="0.56"/><circle class="cls-1" cx="26.63" cy="5.81" r="0.56"/><circle class="cls-1" cx="30" cy="7.5" r="0.56"/><circle class="cls-1" cx="27.75" cy="7.5" r="0.56"/><circle class="cls-1" cx="24.38" cy="5.81" r="0.56"/><circle class="cls-1" cx="25.5" cy="7.5" r="0.56"/><circle class="cls-1" cx="22.13" cy="5.81" r="0.56"/><circle class="cls-1" cx="23.25" cy="7.5" r="0.56"/><circle class="cls-1" cx="19.88" cy="5.81" r="0.56"/><circle class="cls-1" cx="21" cy="7.5" r="0.56"/><path class="cls-2" d="M34.5,10V3.34A2.59,2.59,0,0,0,31.91.75H3.34A2.59,2.59,0,0,0,.75,3.34V10a2.56,2.56,0,0,0,1,2,2.58,2.58,0,0,0-1,2v6.63a2.6,2.6,0,0,0,2.59,2.59H17.06v4.56A2.83,2.83,0,0,0,14.87,30H1.31a.57.57,0,0,0,0,1.13h13.6a2.81,2.81,0,0,0,5.51,0H33.94a.57.57,0,0,0,0-1.13H20.38a2.82,2.82,0,0,0-2.19-2.19V23.25H31.91a2.59,2.59,0,0,0,2.59-2.59V14a2.58,2.58,0,0,0-1-2A2.56,2.56,0,0,0,34.5,10ZM19.31,30.57a1.69,1.69,0,1,1-1.68-1.69h0A1.68,1.68,0,0,1,19.31,30.57ZM33.38,14v6.63a1.47,1.47,0,0,1-1.47,1.47H3.34a1.46,1.46,0,0,1-1.46-1.47V14a1.47,1.47,0,0,1,1.46-1.47H31.91A1.48,1.48,0,0,1,33.38,14Zm-30-2.59A1.46,1.46,0,0,1,1.88,10V3.34A1.46,1.46,0,0,1,3.34,1.88H31.91a1.46,1.46,0,0,1,1.47,1.46V10a1.47,1.47,0,0,1-1.47,1.47Z"/><path class="cls-1" d="M6.66,19.32a2,2,0,1,0-2-2h0A2,2,0,0,0,6.66,19.32Zm0-3.07a1.1,1.1,0,1,1-1.1,1.1A1.1,1.1,0,0,1,6.66,16.25Z"/><circle class="cls-1" cx="28.88" cy="16.5" r="0.56"/><circle class="cls-1" cx="26.63" cy="16.5" r="0.56"/><circle class="cls-1" cx="30" cy="18.19" r="0.56"/><circle class="cls-1" cx="27.75" cy="18.19" r="0.56"/><circle class="cls-1" cx="24.38" cy="16.5" r="0.56"/><circle class="cls-1" cx="25.5" cy="18.19" r="0.56"/><circle class="cls-1" cx="22.13" cy="16.5" r="0.56"/><circle class="cls-1" cx="23.25" cy="18.19" r="0.56"/><circle class="cls-1" cx="19.88" cy="16.5" r="0.56"/><circle class="cls-1" cx="21" cy="18.19" r="0.56"/><path class="cls-3" d="M64,5.06a2.81,2.81,0,0,0-2.37,1.12,4.56,4.56,0,0,0-.88,3,4.54,4.54,0,0,0,.88,3,2.81,2.81,0,0,0,2.3,1.1,2.84,2.84,0,0,0,2.32-1.06,4.55,4.55,0,0,0,.87-2.94,4.92,4.92,0,0,0-.84-3A2.7,2.7,0,0,0,64,5.06Z"/><path class="cls-4" d="M64,2.61a6,6,0,0,0-4.59,1.85,6.76,6.76,0,0,0-1.73,4.83,6.35,6.35,0,0,0,1.7,4.6,6.45,6.45,0,0,0,8.92-.06A6.67,6.67,0,0,0,70.07,9,6.54,6.54,0,0,0,68.4,4.38,5.72,5.72,0,0,0,64,2.61Zm2.17,9.53a2.84,2.84,0,0,1-2.32,1.06,2.81,2.81,0,0,1-2.3-1.1,4.54,4.54,0,0,1-.88-3,4.56,4.56,0,0,1,.88-3A2.81,2.81,0,0,1,64,5.06a2.7,2.7,0,0,1,2.28,1.09,4.92,4.92,0,0,1,.84,3A4.55,4.55,0,0,1,66.21,12.14Z"/><path class="cls-5" d="M117.7,8.25v2.26h2.53V13a3.76,3.76,0,0,1-1.62.3,3.52,3.52,0,0,1-2.69-1.07,4.21,4.21,0,0,1-1-3A4.19,4.19,0,0,1,116,6.13,3.84,3.84,0,0,1,118.91,5a7,7,0,0,1,3.57.85V3.17a10.41,10.41,0,0,0-3.54-.56,7,7,0,0,0-5.1,1.87,6.52,6.52,0,0,0-1.91,4.85A6.1,6.1,0,0,0,113.68,14a6.62,6.62,0,0,0,4.8,1.69,9,9,0,0,0,4.58-1.07V8.25Z"/><polygon class="cls-5" points="52.78 2.83 52.78 7.85 47.56 7.85 47.56 2.83 44.72 2.83 44.72 15.43 47.56 15.43 47.56 10.29 52.78 10.29 52.78 15.43 55.63 15.43 55.63 2.83 52.78 2.83"/><path class="cls-5" d="M107.15,9.8a14.38,14.38,0,0,0,.07,1.73h0c-.19-.34-.4-.68-.63-1l-5-7.67H98.5v12.6h2.68V8.5c0-.91,0-1.59-.07-2h0c.2.36.41.71.64,1L107,15.43h2.86V2.83h-2.69Z"/><rect class="cls-5" x="92.79" y="2.83" width="2.84" height="12.6"/><path class="cls-5" d="M79.29,9.52a5.28,5.28,0,0,0-1-.8,10.71,10.71,0,0,0-1.36-.67c-.37-.16-.7-.3-1-.45a4.25,4.25,0,0,1-.74-.44,2,2,0,0,1-.48-.47,1,1,0,0,1-.16-.57.87.87,0,0,1,.14-.52,1.27,1.27,0,0,1,.43-.4,2.22,2.22,0,0,1,.66-.26,3.29,3.29,0,0,1,.88-.09,6.3,6.3,0,0,1,.75.05,7.2,7.2,0,0,1,.78.16,6.39,6.39,0,0,1,.77.28,4.7,4.7,0,0,1,.69.39V3.1a6.72,6.72,0,0,0-1.4-.37,12.72,12.72,0,0,0-1.74-.12,8.09,8.09,0,0,0-1.9.22A4.8,4.8,0,0,0,73,3.5a3.49,3.49,0,0,0-1.07,1.16,3.36,3.36,0,0,0-.4,1.7,3.28,3.28,0,0,0,.72,2.14,5.54,5.54,0,0,0,2.2,1.5c.39.16.75.31,1.08.47a6.1,6.1,0,0,1,.87.47,2.44,2.44,0,0,1,.57.54,1,1,0,0,1,.21.66.89.89,0,0,1-.13.5,1.1,1.1,0,0,1-.4.4,2,2,0,0,1-.67.27,4.14,4.14,0,0,1-.93.1,5.31,5.31,0,0,1-1.81-.32,5.5,5.5,0,0,1-1.66-1v2.81a5.81,5.81,0,0,0,1.62.53,10.88,10.88,0,0,0,2,.18,9.46,9.46,0,0,0,1.91-.2,4.64,4.64,0,0,0,1.6-.64,3.28,3.28,0,0,0,1.09-1.16,3.6,3.6,0,0,0,.4-1.77A3.82,3.82,0,0,0,80,10.54,3.14,3.14,0,0,0,79.29,9.52Z"/><polygon class="cls-5" points="81.08 2.83 81.08 5.13 84.66 5.13 84.66 15.43 87.5 15.43 87.5 5.13 91.1 5.13 91.1 2.83 81.08 2.83"/><path class="cls-3" d="M84.48,21.48a2.55,2.55,0,0,0-2.11,1,4.17,4.17,0,0,0-.78,2.64,4,4,0,0,0,.78,2.63,2.69,2.69,0,0,0,4.11,0,4,4,0,0,0,.77-2.61,4.34,4.34,0,0,0-.74-2.71A2.43,2.43,0,0,0,84.48,21.48Z"/><path class="cls-3" d="M97.52,21.38H96.39V24.5h1.09a1.83,1.83,0,0,0,1.3-.47,1.58,1.58,0,0,0,.5-1.18C99.28,21.87,98.69,21.38,97.52,21.38Z"/><path class="cls-3" d="M71.23,21.43h-1v3.49h1q2,0,2-1.77C73.24,22,72.57,21.43,71.23,21.43Z"/><path class="cls-3" d="M48.22,21.38H47.08V24.5h1.1a1.83,1.83,0,0,0,1.3-.47,1.58,1.58,0,0,0,.5-1.18C50,21.87,49.39,21.38,48.22,21.38Z"/><path class="cls-5" d="M51.47,26.86a4.72,4.72,0,0,0-.41-.5A3,3,0,0,0,50.6,26a1.47,1.47,0,0,0-.48-.25v0a3.93,3.93,0,0,0,1-.45,2.93,2.93,0,0,0,.8-.69,3,3,0,0,0,.51-.89,3.31,3.31,0,0,0,.18-1.08q0-3-4.08-3.05h-4V30.7h2.52V26.41h.68a.91.91,0,0,1,.43.1,1.39,1.39,0,0,1,.39.28,3.83,3.83,0,0,1,.36.44c.12.17.24.37.38.59l1.74,2.88H54l-2.12-3.31C51.73,27.22,51.61,27,51.47,26.86Zm-2-2.83a1.83,1.83,0,0,1-1.3.47h-1.1V21.39h1.14c1.17,0,1.76.49,1.76,1.47A1.58,1.58,0,0,1,49.48,24Z"/><polygon class="cls-5" points="59.62 26.09 63.29 26.09 63.29 24.05 59.62 24.05 59.62 21.55 63.56 21.55 63.56 19.5 57.1 19.5 57.1 30.7 63.82 30.7 63.82 28.66 59.62 28.66 59.62 26.09"/><path class="cls-5" d="M71.66,19.5h-4V30.7h2.52V26.84h1.21a4.8,4.8,0,0,0,3.24-1,3.42,3.42,0,0,0,1.22-2.73Q75.9,19.5,71.66,19.5Zm-.43,5.43h-1V21.44h1c1.34,0,2,.58,2,1.73S72.57,24.93,71.23,24.93Z"/><path class="cls-4" d="M84.55,19.31A5.35,5.35,0,0,0,80.47,21a6,6,0,0,0-1.54,4.3,5.64,5.64,0,0,0,1.52,4.08,5.2,5.2,0,0,0,3.92,1.57,5.27,5.27,0,0,0,4-1.62A6,6,0,0,0,89.91,25a5.78,5.78,0,0,0-1.48-4.14A5.1,5.1,0,0,0,84.55,19.31Zm1.93,8.47a2.69,2.69,0,0,1-4.11,0,4,4,0,0,1-.78-2.63,4.17,4.17,0,0,1,.78-2.64,2.55,2.55,0,0,1,2.11-1,2.43,2.43,0,0,1,2,1,4.34,4.34,0,0,1,.74,2.71A4,4,0,0,1,86.48,27.78Z"/><path class="cls-5" d="M124.47,26.36a2.72,2.72,0,0,0-.58-.91,4.31,4.31,0,0,0-.92-.72,12.38,12.38,0,0,0-1.21-.6c-.33-.13-.62-.26-.88-.39a4.4,4.4,0,0,1-.66-.39,1.91,1.91,0,0,1-.43-.42.9.9,0,0,1-.14-.5.78.78,0,0,1,.13-.47,1.12,1.12,0,0,1,.37-.35,1.91,1.91,0,0,1,.6-.23,3.39,3.39,0,0,1,.78-.09,4.89,4.89,0,0,1,.66.05,4.15,4.15,0,0,1,.7.15,4.23,4.23,0,0,1,.68.24,3.79,3.79,0,0,1,.62.35V19.74a6,6,0,0,0-1.25-.32,10,10,0,0,0-1.55-.11,7.36,7.36,0,0,0-1.69.19,4.46,4.46,0,0,0-1.4.6,3.09,3.09,0,0,0-1,1,3.12,3.12,0,0,0-.35,1.5,2.87,2.87,0,0,0,.65,1.9,4.88,4.88,0,0,0,2,1.34l1,.41a5.86,5.86,0,0,1,.78.42,2.11,2.11,0,0,1,.51.48,1,1,0,0,1,.18.59,1,1,0,0,1-.11.45,1.13,1.13,0,0,1-.36.36,1.77,1.77,0,0,1-.59.23,3.35,3.35,0,0,1-.83.09,4.87,4.87,0,0,1-1.61-.28,5,5,0,0,1-1.48-.86v2.5a5.52,5.52,0,0,0,1.44.47,9.45,9.45,0,0,0,1.76.16,8.11,8.11,0,0,0,1.7-.18,4,4,0,0,0,1.41-.57,2.74,2.74,0,0,0,1-1,3.15,3.15,0,0,0,.35-1.57A3,3,0,0,0,124.47,26.36Z"/><polygon class="cls-5" points="105.05 19.5 105.05 21.55 108.23 21.55 108.23 30.7 110.75 30.7 110.75 21.55 113.95 21.55 113.95 19.5 105.05 19.5"/><path class="cls-5" d="M100.78,26.86c-.13-.17-.27-.34-.42-.5a3.47,3.47,0,0,0-.45-.41,1.57,1.57,0,0,0-.48-.25v0a3.93,3.93,0,0,0,1-.45,2.89,2.89,0,0,0,.79-.69,2.82,2.82,0,0,0,.51-.89,3.06,3.06,0,0,0,.18-1.08q0-3-4.08-3.05h-4V30.7h2.53V26.41h.68a.91.91,0,0,1,.43.1,1.49,1.49,0,0,1,.38.28,3.08,3.08,0,0,1,.37.44c.11.17.24.37.37.59l1.74,2.88h2.9l-2.12-3.31C101,27.22,100.91,27,100.78,26.86Zm-2-2.83a1.83,1.83,0,0,1-1.3.47H96.39V21.39h1.13c1.17,0,1.76.49,1.76,1.47A1.58,1.58,0,0,1,98.78,24Z"/></svg>